<svg xmlns="http://www.w3.org/2000/svg" viewBox="0 0 1200 700" width="1200" height="700" preserveAspectRatio="xMidYMid slice" shape-rendering="crispEdges">
  <defs>
    <!-- Soft gradient background -->
    <linearGradient id="bgGrad" x1="0" y1="0" x2="0" y2="1">
      <stop offset="0%" stop-color="#0b1220"/>
      <stop offset="55%" stop-color="#0f1b33"/>
      <stop offset="100%" stop-color="#0a1020"/>
    </linearGradient>

    <!-- Pixel grid pattern -->
    <pattern id="grid" width="20" height="20" patternUnits="userSpaceOnUse">
      <rect width="20" height="20" fill="none"/>
      <path d="M20 0H0V20" fill="none" stroke="#ffffff" stroke-opacity="0.05" stroke-width="1"/>
    </pattern>

    <!-- Subtle dotted sparkle pattern -->
    <pattern id="dots" width="160" height="160" patternUnits="userSpaceOnUse">
      <circle cx="20" cy="30" r="2" fill="#ffffff" opacity="0.18"/>
      <circle cx="120" cy="60" r="2" fill="#ffffff" opacity="0.12"/>
      <circle cx="70" cy="120" r="2" fill="#ffffff" opacity="0.10"/>
      <circle cx="150" cy="130" r="1.6" fill="#ffffff" opacity="0.12"/>
      <circle cx="40" cy="150" r="1.6" fill="#ffffff" opacity="0.09"/>
    </pattern>

    <!-- Glow for decorative elements -->
    <filter id="softGlow" x="-30%" y="-30%" width="160%" height="160%">
      <feGaussianBlur stdDeviation="6" result="b"/>
      <feColorMatrix in="b" type="matrix"
        values="1 0 0 0 0
                0 1 0 0 0
                0 0 1 0 0
                0 0 0 0.35 0"/>
      <feMerge>
        <feMergeNode/>
        <feMergeNode in="SourceGraphic"/>
      </feMerge>
    </filter>

    <!-- A reusable "pixel block" as 1 unit = 10px -->
    <g id="px">
      <rect width="10" height="10" rx="1.5"/>
    </g>

    <!-- Pixel animal: CAT -->
    <g id="cat" shape-rendering="crispEdges">
      <g transform="translate(0,0)">
        <g fill="#0a0f1a" opacity="0.95">
          <use href="#px" x="20" y="0"/>
          <use href="#px" x="50" y="0"/>
          <use href="#px" x="10" y="10"/>
          <use href="#px" x="60" y="10"/>
          <use href="#px" x="0"  y="20"/>
          <use href="#px" x="70" y="20"/>
          <use href="#px" x="0"  y="30"/>
          <use href="#px" x="70" y="30"/>
          <use href="#px" x="0"  y="40"/>
          <use href="#px" x="70" y="40"/>
          <use href="#px" x="10" y="50"/>
          <use href="#px" x="60" y="50"/>
          <use href="#px" x="20" y="60"/>
          <use href="#px" x="50" y="60"/>
        </g>

        <g fill="#f7b267">
          <use href="#px" x="20" y="10"/>
          <use href="#px" x="30" y="10"/>
          <use href="#px" x="40" y="10"/>
          <use href="#px" x="50" y="10"/>

          <use href="#px" x="10" y="20"/>
          <use href="#px" x="20" y="20"/>
          <use href="#px" x="30" y="20"/>
          <use href="#px" x="40" y="20"/>
          <use href="#px" x="50" y="20"/>
          <use href="#px" x="60" y="20"/>

          <use href="#px" x="10" y="30"/>
          <use href="#px" x="20" y="30"/>
          <use href="#px" x="30" y="30"/>
          <use href="#px" x="40" y="30"/>
          <use href="#px" x="50" y="30"/>
          <use href="#px" x="60" y="30"/>

          <use href="#px" x="10" y="40"/>
          <use href="#px" x="20" y="40"/>
          <use href="#px" x="30" y="40"/>
          <use href="#px" x="40" y="40"/>
          <use href="#px" x="50" y="40"/>
          <use href="#px" x="60" y="40"/>

          <use href="#px" x="20" y="50"/>
          <use href="#px" x="30" y="50"/>
          <use href="#px" x="40" y="50"/>
          <use href="#px" x="50" y="50"/>
        </g>

        <g>
          <rect x="25" y="28" width="10" height="10" rx="2" fill="#0a0f1a"/>
          <rect x="45" y="28" width="10" height="10" rx="2" fill="#0a0f1a"/>
          <rect x="35" y="40" width="10" height="10" rx="2" fill="#ff6b6b"/>
        </g>

        <g fill="#f7b267">
          <use href="#px" x="80" y="40"/>
          <use href="#px" x="90" y="40"/>
          <use href="#px" x="100" y="30"/>
          <use href="#px" x="110" y="20"/>
        </g>
        <g fill="#0a0f1a" opacity="0.9">
          <use href="#px" x="80" y="30"/>
          <use href="#px" x="90" y="30"/>
          <use href="#px" x="100" y="20"/>
          <use href="#px" x="110" y="10"/>
        </g>
      </g>
    </g>

    <!-- Pixel animal: FOX -->
    <g id="fox" shape-rendering="crispEdges">
      <g fill="#0a0f1a" opacity="0.95">
        <use href="#px" x="20" y="0"/>
        <use href="#px" x="50" y="0"/>
        <use href="#px" x="10" y="10"/>
        <use href="#px" x="60" y="10"/>
        <use href="#px" x="0" y="20"/>
        <use href="#px" x="70" y="20"/>
        <use href="#px" x="0" y="30"/>
        <use href="#px" x="70" y="30"/>
        <use href="#px" x="10" y="40"/>
        <use href="#px" x="60" y="40"/>
        <use href="#px" x="20" y="50"/>
        <use href="#px" x="50" y="50"/>
      </g>

      <g fill="#ff8c42">
        <use href="#px" x="20" y="10"/>
        <use href="#px" x="30" y="10"/>
        <use href="#px" x="40" y="10"/>
        <use href="#px" x="50" y="10"/>

        <use href="#px" x="10" y="20"/>
        <use href="#px" x="20" y="20"/>
        <use href="#px" x="30" y="20"/>
        <use href="#px" x="40" y="20"/>
        <use href="#px" x="50" y="20"/>
        <use href="#px" x="60" y="20"/>

        <use href="#px" x="10" y="30"/>
        <use href="#px" x="20" y="30"/>
        <use href="#px" x="30" y="30"/>
        <use href="#px" x="40" y="30"/>
        <use href="#px" x="50" y="30"/>
        <use href="#px" x="60" y="30"/>

        <use href="#px" x="20" y="40"/>
        <use href="#px" x="30" y="40"/>
        <use href="#px" x="40" y="40"/>
        <use href="#px" x="50" y="40"/>
      </g>

      <g fill="#f5f1e8">
        <use href="#px" x="30" y="30"/>
        <use href="#px" x="40" y="30"/>
        <use href="#px" x="30" y="40"/>
        <use href="#px" x="40" y="40"/>
      </g>

      <g>
        <rect x="25" y="22" width="10" height="10" rx="2" fill="#0a0f1a"/>
        <rect x="45" y="22" width="10" height="10" rx="2" fill="#0a0f1a"/>
        <rect x="35" y="35" width="10" height="10" rx="2" fill="#2ec4b6"/>
      </g>
    </g>

    <!-- Pixel animal: BUNNY -->
    <g id="bunny" shape-rendering="crispEdges">
      <g fill="#0a0f1a" opacity="0.95">
        <use href="#px" x="20" y="0"/>
        <use href="#px" x="50" y="0"/>
        <use href="#px" x="20" y="10"/>
        <use href="#px" x="50" y="10"/>
        <use href="#px" x="10" y="20"/>
        <use href="#px" x="60" y="20"/>
        <use href="#px" x="0" y="30"/>
        <use href="#px" x="70" y="30"/>
        <use href="#px" x="0" y="40"/>
        <use href="#px" x="70" y="40"/>
        <use href="#px" x="10" y="50"/>
        <use href="#px" x="60" y="50"/>
        <use href="#px" x="20" y="60"/>
        <use href="#px" x="50" y="60"/>
      </g>

      <g fill="#e9eef7">
        <use href="#px" x="30" y="0"/>
        <use href="#px" x="40" y="0"/>
        <use href="#px" x="30" y="10"/>
        <use href="#px" x="40" y="10"/>

        <use href="#px" x="20" y="20"/>
        <use href="#px" x="30" y="20"/>
        <use href="#px" x="40" y="20"/>
        <use href="#px" x="50" y="20"/>

        <use href="#px" x="10" y="30"/>
        <use href="#px" x="20" y="30"/>
        <use href="#px" x="30" y="30"/>
        <use href="#px" x="40" y="30"/>
        <use href="#px" x="50" y="30"/>
        <use href="#px" x="60" y="30"/>

        <use href="#px" x="10" y="40"/>
        <use href="#px" x="20" y="40"/>
        <use href="#px" x="30" y="40"/>
        <use href="#px" x="40" y="40"/>
        <use href="#px" x="50" y="40"/>
        <use href="#px" x="60" y="40"/>

        <use href="#px" x="20" y="50"/>
        <use href="#px" x="30" y="50"/>
        <use href="#px" x="40" y="50"/>
        <use href="#px" x="50" y="50"/>
      </g>

      <g fill="#ffb3c1" opacity="0.95">
        <use href="#px" x="30" y="20"/>
        <use href="#px" x="40" y="20"/>
      </g>

      <g>
        <rect x="25" y="34" width="10" height="10" rx="2" fill="#0a0f1a"/>
        <rect x="45" y="34" width="10" height="10" rx="2" fill="#0a0f1a"/>
        <rect x="35" y="46" width="10" height="10" rx="2" fill="#ff6b6b"/>
      </g>
    </g>

    <!-- Chat bubble -->
    <g id="bubble" filter="url(#softGlow)">
      <rect x="0" y="0" width="220" height="120" rx="18" fill="#ffffff" opacity="0.08" stroke="#ffffff" stroke-opacity="0.12"/>
      <path d="M55 120 L85 120 L70 145 Z" fill="#ffffff" opacity="0.08"/>
      <rect x="28" y="32" width="164" height="14" rx="7" fill="#ffffff" opacity="0.18"/>
      <rect x="28" y="58" width="120" height="14" rx="7" fill="#ffffff" opacity="0.12"/>
      <rect x="28" y="84" width="140" height="14" rx="7" fill="#ffffff" opacity="0.10"/>
    </g>
  </defs>

  <!-- Background layers -->
  <rect width="1200" height="700" fill="url(#bgGrad)"/>
  <rect width="1200" height="700" fill="url(#dots)" opacity="0.7"/>
  <rect width="1200" height="700" fill="url(#grid)"/>

  <!-- Calm center for login card -->
  <rect x="340" y="130" width="520" height="440" rx="28" fill="#0a0f1a" opacity="0.10"/>

  <!-- Decorative bubbles -->
  <g transform="translate(80,120) rotate(-4)">
    <use href="#bubble"/>
  </g>
  <g transform="translate(880,90) rotate(6)">
    <use href="#bubble" opacity="0.85"/>
  </g>
  <g transform="translate(900,520) rotate(-6)">
    <use href="#bubble" opacity="0.6"/>
  </g>

  <!-- Pixel animals -->
  <g transform="translate(120,420) scale(1.4)" filter="url(#softGlow)">
    <use href="#cat"/>
  </g>
  <g transform="translate(980,250) scale(1.35)" filter="url(#softGlow)">
    <use href="#fox"/>
  </g>
  <g transform="translate(140,220) scale(1.25)" filter="url(#softGlow)">
    <use href="#bunny"/>
  </g>

  <!-- Tiny pixel stars -->
  <g opacity="0.22">
    <rect x="520" y="70" width="6" height="6" fill="#ffffff"/>
    <rect x="900" y="180" width="6" height="6" fill="#ffffff"/>
    <rect x="760" y="620" width="6" height="6" fill="#ffffff"/>
    <rect x="260" y="560" width="6" height="6" fill="#ffffff"/>
    <rect x="1030" y="420" width="6" height="6" fill="#ffffff"/>
  </g>
</svg>
